<svg width="350" height="350" viewBox="0 0 350 350" fill="none" xmlns="http://www.w3.org/2000/svg">
<circle cx="175" cy="175" r="170" fill="url(#paint0_radial_1038_29)" stroke="white" stroke-width="10"/>
<circle cx="145.5" cy="57.5" r="12.5" fill="#FFFEFE"/>
<circle cx="145.5" cy="57.5" r="12.5" fill="#FFFEFE"/>
<circle cx="145.5" cy="57.5" r="12.5" fill="#FFFEFE"/>
<line x1="145.044" y1="58.7026" x2="145.044" y2="294.391" stroke="white" stroke-width="6"/>
<line x1="282.127" y1="254.046" x2="69.277" y2="129.808" stroke="white" stroke-width="6"/>
<line x1="267.825" y1="124.373" x2="151.808" y2="289.72" stroke="white" stroke-width="6"/>
<line x1="265.496" y1="121.992" x2="70.916" y2="130.214" stroke="white" stroke-width="6"/>
<line x1="281.148" y1="253.187" x2="142.335" y2="56.7801" stroke="white" stroke-width="6"/>
<line x1="284.423" y1="254.34" x2="150.176" y2="292.708" stroke="white" stroke-width="6"/>
<line x1="73.5172" y1="131.45" x2="147.512" y2="293.143" stroke="white" stroke-width="6"/>
<line x1="146.149" y1="57.4636" x2="273.129" y2="122.324" stroke="white" stroke-width="6"/>
<line x1="146.893" y1="56.2694" x2="71.0707" y2="131.178" stroke="white" stroke-width="6"/>
<circle cx="70.5" cy="131.5" r="12.5" fill="#FFFEFE"/>
<circle cx="70.5" cy="131.5" r="12.5" fill="#FFFEFE"/>
<circle cx="70.5" cy="131.5" r="12.5" fill="#FFFEFE"/>
<circle cx="147.5" cy="296.5" r="12.5" fill="#FFFEFE"/>
<circle cx="147.5" cy="296.5" r="12.5" fill="#FFFEFE"/>
<circle cx="147.5" cy="296.5" r="12.5" fill="#FFFEFE"/>
<ellipse cx="284" cy="254" rx="10" ry="9" fill="#FFFEFE"/>
<ellipse cx="284" cy="254" rx="10" ry="9" fill="#FFFEFE"/>
<ellipse cx="284" cy="254" rx="10" ry="9" fill="#FFFEFE"/>
<circle cx="268" cy="122" r="10" fill="#FFFEFE"/>
<circle cx="268" cy="122" r="10" fill="#FFFEFE"/>
<circle cx="268" cy="122" r="10" fill="#FFFEFE"/>
<circle cx="190.678" cy="123.678" r="8.67845" fill="#FFFEFE"/>
<circle cx="190.678" cy="123.678" r="8.67845" fill="#FFFEFE"/>
<circle cx="190.678" cy="123.678" r="8.67845" fill="#FFFEFE"/>
<circle cx="144.678" cy="127.678" r="8.67845" fill="#FFFEFE"/>
<circle cx="144.678" cy="127.678" r="8.67845" fill="#FFFEFE"/>
<circle cx="144.678" cy="127.678" r="8.67845" fill="#FFFEFE"/>
<circle cx="144.678" cy="171.678" r="8.67845" fill="#FFFEFE"/>
<circle cx="144.678" cy="171.678" r="8.67845" fill="#FFFEFE"/>
<circle cx="144.678" cy="171.678" r="8.67845" fill="#FFFEFE"/>
<circle cx="206.678" cy="208.678" r="8.67845" fill="#FFFEFE"/>
<circle cx="206.678" cy="208.678" r="8.67845" fill="#FFFEFE"/>
<circle cx="206.678" cy="208.678" r="8.67845" fill="#FFFEFE"/>
<circle cx="229.678" cy="177.678" r="8.67845" fill="#FFFEFE"/>
<circle cx="229.678" cy="177.678" r="8.67845" fill="#FFFEFE"/>
<circle cx="229.678" cy="177.678" r="8.67845" fill="#FFFEFE"/>
<defs>
<radialGradient id="paint0_radial_1038_29" cx="0" cy="0" r="1" gradientUnits="userSpaceOnUse" gradientTransform="translate(391 270) rotate(-144.023) scale(378.746 431.194)">
<stop stop-color="#C15353"/>
<stop offset="0.75" stop-color="#5668AF"/>
</radialGradient>
</defs>
</svg>
