<svg width="1838" height="330" viewBox="0 0 1838 330" fill="none" xmlns="http://www.w3.org/2000/svg">
<circle cx="165" cy="165" r="161" fill="url(#paint0_radial_204_470)" stroke="white" stroke-width="8"/>
<circle cx="132.205" cy="44.2959" r="9.29588" fill="#FFFEFE"/>
<circle cx="132.205" cy="44.2959" r="9.29588" fill="#FFFEFE"/>
<circle cx="132.205" cy="44.2959" r="9.29588" fill="#FFFEFE"/>
<line x1="134.11" y1="48.7026" x2="134.11" y2="284.391" stroke="white" stroke-width="4.1315"/>
<line x1="272.598" y1="243.24" x2="59.748" y2="119.001" stroke="white" stroke-width="4.1315"/>
<line x1="257.06" y1="113.836" x2="141.043" y2="279.183" stroke="white" stroke-width="4.1315"/>
<line x1="255.456" y1="111.059" x2="60.8765" y2="119.281" stroke="white" stroke-width="4.1315"/>
<line x1="271.911" y1="242.648" x2="133.097" y2="46.2408" stroke="white" stroke-width="4.1315"/>
<line x1="274.166" y1="243.442" x2="139.92" y2="281.81" stroke="white" stroke-width="4.1315"/>
<line x1="62.6677" y1="121.839" x2="136.663" y2="283.532" stroke="white" stroke-width="4.1315"/>
<line x1="135.724" y1="42.2956" x2="262.704" y2="107.156" stroke="white" stroke-width="4.1315"/>
<line x1="136.236" y1="45.6048" x2="60.4141" y2="120.514" stroke="white" stroke-width="4.1315"/>
<circle cx="58.3288" cy="119.324" r="10.3288" fill="#FFFEFE"/>
<circle cx="58.3288" cy="119.324" r="10.3288" fill="#FFFEFE"/>
<circle cx="58.3288" cy="119.324" r="10.3288" fill="#FFFEFE"/>
<circle cx="135.065" cy="284.671" r="10.3288" fill="#FFFEFE"/>
<circle cx="135.065" cy="284.671" r="10.3288" fill="#FFFEFE"/>
<circle cx="135.065" cy="284.671" r="10.3288" fill="#FFFEFE"/>
<circle cx="273.183" cy="242.826" r="8.67845" fill="#FFFEFE"/>
<circle cx="273.183" cy="242.826" r="8.67845" fill="#FFFEFE"/>
<circle cx="273.183" cy="242.826" r="8.67845" fill="#FFFEFE"/>
<circle cx="260.394" cy="110.365" r="8.67845" fill="#FFFEFE"/>
<circle cx="260.394" cy="110.365" r="8.67845" fill="#FFFEFE"/>
<circle cx="260.394" cy="110.365" r="8.67845" fill="#FFFEFE"/>
<circle cx="133.276" cy="116.622" r="6.71369" fill="#FFFEFE"/>
<circle cx="133.276" cy="116.622" r="6.71369" fill="#FFFEFE"/>
<circle cx="133.276" cy="116.622" r="6.71369" fill="#FFFEFE"/>
<circle cx="134.19" cy="161.385" r="6.71369" fill="#FFFEFE"/>
<circle cx="134.19" cy="161.385" r="6.71369" fill="#FFFEFE"/>
<circle cx="134.19" cy="161.385" r="6.71369" fill="#FFFEFE"/>
<circle cx="198.136" cy="198.839" r="6.71369" fill="#FFFEFE"/>
<circle cx="198.136" cy="198.839" r="6.71369" fill="#FFFEFE"/>
<circle cx="198.136" cy="198.839" r="6.71369" fill="#FFFEFE"/>
<circle cx="219.147" cy="168.693" r="6.71369" fill="#FFFEFE"/>
<circle cx="219.147" cy="168.693" r="6.71369" fill="#FFFEFE"/>
<circle cx="219.147" cy="168.693" r="6.71369" fill="#FFFEFE"/>
<circle cx="180.78" cy="112.968" r="6.71369" fill="#FFFEFE"/>
<circle cx="180.78" cy="112.968" r="6.71369" fill="#FFFEFE"/>
<circle cx="180.78" cy="112.968" r="6.71369" fill="#FFFEFE"/>
<path d="M438.277 234.3C426.972 234.3 416.695 231.602 407.446 226.207C398.197 220.811 390.81 213.553 385.286 204.432C379.762 195.311 377 185.227 377 174.179C377 163.131 379.762 153.047 385.286 143.926C390.81 134.805 398.197 127.547 407.446 122.151C416.695 116.756 426.972 114.058 438.277 114.058C446.627 114.058 454.464 115.535 461.786 118.49C469.108 121.445 475.532 125.363 481.056 130.244L474.697 156.451C471.485 150.028 466.603 144.632 460.052 140.265C453.629 135.897 446.306 133.713 438.084 133.713C430.634 133.713 423.825 135.576 417.659 139.301C411.621 142.898 406.804 147.78 403.207 153.946C399.61 159.984 397.811 166.728 397.811 174.179C397.811 181.501 399.61 188.246 403.207 194.412C406.804 200.578 411.621 205.524 417.659 209.25C423.825 212.847 430.634 214.645 438.084 214.645C446.306 214.645 453.629 212.525 460.052 208.286C466.603 204.047 471.485 198.587 474.697 191.907L481.056 218.114C475.532 222.995 469.108 226.913 461.786 229.868C454.464 232.823 446.627 234.3 438.277 234.3Z" fill="white"/>
<path d="M559.29 234.3C548.114 234.3 537.901 231.602 528.651 226.207C519.402 220.811 512.015 213.553 506.491 204.432C501.096 195.311 498.398 185.227 498.398 174.179C498.398 163.003 501.096 152.918 506.491 143.926C512.015 134.805 519.402 127.547 528.651 122.151C537.901 116.756 548.114 114.058 559.29 114.058C570.595 114.058 580.808 116.756 589.928 122.151C599.178 127.547 606.5 134.805 611.896 143.926C617.42 152.918 620.182 163.003 620.182 174.179C620.182 185.227 617.42 195.311 611.896 204.432C606.5 213.553 599.178 220.811 589.928 226.207C580.808 231.602 570.595 234.3 559.29 234.3ZM559.29 214.645C566.741 214.645 573.485 212.847 579.523 209.25C585.561 205.524 590.378 200.643 593.975 194.605C597.572 188.438 599.371 181.63 599.371 174.179C599.371 166.728 597.572 159.984 593.975 153.946C590.378 147.78 585.561 142.898 579.523 139.301C573.485 135.576 566.741 133.713 559.29 133.713C551.839 133.713 545.095 135.576 539.057 139.301C533.019 142.898 528.202 147.78 524.605 153.946C521.008 159.984 519.209 166.728 519.209 174.179C519.209 181.63 521.008 188.438 524.605 194.605C528.202 200.643 533.019 205.524 539.057 209.25C545.095 212.847 551.839 214.645 559.29 214.645Z" fill="white"/>
<path d="M649.026 231.988V116.37H668.295V135.062C672.535 128.253 677.994 123.05 684.674 119.453C691.483 115.857 698.805 114.058 706.642 114.058C714.863 114.058 722.443 116.113 729.38 120.224C736.445 124.207 742.162 130.052 746.53 137.76C750.897 145.339 753.081 154.588 753.081 165.508V231.988H732.27V168.398C732.27 159.277 729.508 151.248 723.984 144.311C718.589 137.246 710.945 133.713 701.054 133.713C692.96 133.713 685.702 136.668 679.279 142.577C672.984 148.358 669.837 156.772 669.837 167.82V231.988H649.026Z" fill="white"/>
<path d="M817.634 234.3C811.725 234.3 805.366 233.208 798.557 231.024C791.877 228.712 786.097 224.922 781.215 219.655L786.996 196.917C790.593 202.955 795.217 207.772 800.87 211.369C806.522 214.838 812.56 216.572 818.983 216.572C825.149 216.572 829.774 215.095 832.857 212.14C835.94 209.057 837.482 205.331 837.482 200.964C837.482 195.954 835.812 192.292 832.472 189.98C829.26 187.668 826.37 186.062 823.801 185.163L808.192 179.189C805.366 178.033 801.962 176.363 797.979 174.179C793.997 171.867 790.529 168.591 787.574 164.352C784.619 160.112 783.142 154.588 783.142 147.78C783.142 141.613 784.619 135.961 787.574 130.823C790.529 125.684 794.704 121.637 800.099 118.683C805.495 115.6 811.853 114.058 819.176 114.058C824.957 114.058 830.995 115.086 837.289 117.141C843.584 119.197 848.915 122.665 853.283 127.547L847.502 150.285C844.419 144.632 840.244 140.136 834.977 136.796C829.71 133.456 824.25 131.786 818.598 131.786C813.331 131.786 809.156 133.263 806.073 136.218C803.118 139.173 801.641 142.577 801.641 146.431C801.641 149.514 802.668 152.276 804.724 154.717C806.779 157.158 809.862 159.149 813.973 160.69L829.581 166.664C832.408 167.692 835.876 169.362 839.987 171.674C844.226 173.986 847.952 177.326 851.163 181.694C854.375 186.062 855.981 191.971 855.981 199.422C855.981 209.828 852.32 218.242 844.997 224.665C837.803 231.088 828.682 234.3 817.634 234.3Z" fill="white"/>
<path d="M899.62 231.988V133.713H873.414V116.37H900.198V77.8313H919.853V116.37H948.565V133.713H920.431V231.988H899.62Z" fill="white"/>
<path d="M1022.26 234.3C1010.19 234.3 999.334 231.602 989.699 226.207C980.193 220.811 972.678 213.489 967.154 204.24C961.759 194.862 959.061 184.456 959.061 173.023C959.061 162.103 961.694 152.212 966.961 143.348C972.228 134.355 979.294 127.226 988.158 121.959C997.15 116.692 1007.04 114.058 1017.83 114.058C1028.5 114.058 1038.26 116.627 1047.12 121.766C1055.99 126.776 1063.05 133.584 1068.32 142.192C1073.59 150.799 1076.22 160.562 1076.22 171.481V179.96H1000.68C997.343 179.96 993.939 179.831 990.47 179.574C987.002 179.318 983.597 178.932 980.257 178.418C981.67 188.695 986.295 197.302 994.131 204.24C1002.1 211.177 1011.54 214.645 1022.46 214.645C1029.78 214.645 1036.59 212.975 1042.88 209.635C1049.18 206.295 1054.25 201.863 1058.11 196.339L1063.89 220.041C1058.36 224.537 1052 228.07 1044.81 230.639C1037.74 233.08 1030.23 234.3 1022.26 234.3ZM979.679 164.352C986.616 163.195 993.617 162.617 1000.68 162.617H1039.03C1041.86 162.617 1044.62 162.746 1047.32 163.003C1050.14 163.131 1052.97 163.324 1055.79 163.581C1054 154.588 1049.5 147.202 1042.31 141.421C1035.11 135.511 1026.95 132.557 1017.83 132.557C1008.46 132.557 1000.23 135.704 993.168 141.999C986.102 148.165 981.606 155.616 979.679 164.352Z" fill="white"/>
<path d="M1104 231.988V47H1124.81V231.988H1104Z" fill="white"/>
<path d="M1161.72 231.988V47H1182.53V231.988H1161.72Z" fill="white"/>
<path d="M1268.96 233.529C1258.42 233.529 1248.79 230.896 1240.05 225.629C1231.32 220.233 1224.32 213.039 1219.05 204.047C1213.91 195.054 1211.34 185.098 1211.34 174.179C1211.34 163.26 1213.91 153.304 1219.05 144.311C1224.32 135.319 1231.32 128.189 1240.05 122.922C1248.79 117.527 1258.42 114.829 1268.96 114.829C1276.92 114.829 1284.37 116.306 1291.31 119.261C1298.38 122.215 1304.48 126.326 1309.62 131.593V116.37H1328.89V231.988H1309.62V216.765C1304.48 221.903 1298.38 226.014 1291.31 229.097C1284.37 232.052 1276.92 233.529 1268.96 233.529ZM1271.65 214.645C1278.98 214.645 1285.59 212.847 1291.5 209.25C1297.54 205.524 1302.29 200.643 1305.76 194.605C1309.36 188.438 1311.16 181.63 1311.16 174.179C1311.16 166.728 1309.36 159.984 1305.76 153.946C1302.29 147.78 1297.54 142.898 1291.5 139.301C1285.59 135.576 1278.98 133.713 1271.65 133.713C1264.33 133.713 1257.65 135.576 1251.61 139.301C1245.71 142.898 1240.95 147.78 1237.36 153.946C1233.89 159.984 1232.15 166.728 1232.15 174.179C1232.15 181.63 1233.89 188.438 1237.36 194.605C1240.95 200.643 1245.71 205.524 1251.61 209.25C1257.65 212.847 1264.33 214.645 1271.65 214.645Z" fill="white"/>
<path d="M1348.42 231.988L1409.89 132.171L1363.84 58.5617H1400.06L1417.21 85.5391C1419.65 89.2645 1422.03 93.1827 1424.34 97.2935C1426.65 101.404 1429.16 106.222 1431.86 111.746C1434.43 106.222 1436.87 101.404 1439.18 97.2935C1441.49 93.0542 1443.87 89.1361 1446.31 85.5391L1463.84 58.5617H1498.34L1452.67 131.208L1514.52 231.988H1477.72L1444.96 178.418C1442.78 174.693 1440.53 170.903 1438.22 167.049C1436.03 163.067 1433.59 158.635 1430.89 153.753C1428.32 158.635 1425.95 163.067 1423.76 167.049C1421.58 170.903 1419.33 174.693 1417.02 178.418L1384.07 231.988H1348.42Z" fill="white"/>
<path d="M1533.5 231.988V116.37H1554.31V231.988H1533.5ZM1543.9 95.5593C1540.05 95.5593 1536.77 94.2104 1534.08 91.5126C1531.38 88.8149 1530.03 85.5391 1530.03 81.6852C1530.03 77.7028 1531.38 74.427 1534.08 71.8577C1536.77 69.16 1540.05 67.8111 1543.9 67.8111C1547.89 67.8111 1551.16 69.16 1553.73 71.8577C1556.43 74.427 1557.78 77.7028 1557.78 81.6852C1557.78 85.5391 1556.43 88.8149 1553.73 91.5126C1551.16 94.2104 1547.89 95.5593 1543.9 95.5593Z" fill="white"/>
<path d="M1644.01 234.3C1632.84 234.3 1622.63 231.602 1613.38 226.207C1604.13 220.811 1596.74 213.553 1591.22 204.432C1585.82 195.311 1583.12 185.227 1583.12 174.179C1583.12 163.003 1585.82 152.918 1591.22 143.926C1596.74 134.805 1604.13 127.547 1613.38 122.151C1622.63 116.756 1632.84 114.058 1644.01 114.058C1655.32 114.058 1665.53 116.756 1674.65 122.151C1683.9 127.547 1691.23 134.805 1696.62 143.926C1702.14 152.918 1704.91 163.003 1704.91 174.179C1704.91 185.227 1702.14 195.311 1696.62 204.432C1691.23 213.553 1683.9 220.811 1674.65 226.207C1665.53 231.602 1655.32 234.3 1644.01 234.3ZM1644.01 214.645C1651.47 214.645 1658.21 212.847 1664.25 209.25C1670.29 205.524 1675.1 200.643 1678.7 194.605C1682.3 188.438 1684.1 181.63 1684.1 174.179C1684.1 166.728 1682.3 159.984 1678.7 153.946C1675.1 147.78 1670.29 142.898 1664.25 139.301C1658.21 135.576 1651.47 133.713 1644.01 133.713C1636.56 133.713 1629.82 135.576 1623.78 139.301C1617.74 142.898 1612.93 147.78 1609.33 153.946C1605.73 159.984 1603.93 166.728 1603.93 174.179C1603.93 181.63 1605.73 188.438 1609.33 194.605C1612.93 200.643 1617.74 205.524 1623.78 209.25C1629.82 212.847 1636.56 214.645 1644.01 214.645Z" fill="white"/>
<path d="M1733.75 231.988V116.37H1753.02V135.062C1757.26 128.253 1762.72 123.05 1769.4 119.453C1776.21 115.857 1783.53 114.058 1791.37 114.058C1799.59 114.058 1807.17 116.113 1814.1 120.224C1821.17 124.207 1826.89 130.052 1831.25 137.76C1835.62 145.339 1837.81 154.588 1837.81 165.508V231.988H1817V168.398C1817 159.277 1814.23 151.248 1808.71 144.311C1803.31 137.246 1795.67 133.713 1785.78 133.713C1777.69 133.713 1770.43 136.668 1764 142.577C1757.71 148.358 1754.56 156.772 1754.56 167.82V231.988H1733.75Z" fill="white"/>
<defs>
<radialGradient id="paint0_radial_204_470" cx="0" cy="0" r="1" gradientUnits="userSpaceOnUse" gradientTransform="translate(381 260) rotate(-144.023) scale(378.746 431.194)">
<stop stop-color="#C15353"/>
<stop offset="0.75" stop-color="#5668AF"/>
</radialGradient>
</defs>
</svg>
